<svg width="92" height="30" viewBox="0 0 92 30" fill="none" xmlns="http://www.w3.org/2000/svg">
<path d="M8.89355 13.6396H3.41504L3.38574 10.6221H7.98535C8.7959 10.6221 9.45996 10.5195 9.97754 10.3145C10.4951 10.0996 10.8809 9.79199 11.1348 9.3916C11.3984 8.98145 11.5303 8.4834 11.5303 7.89746C11.5303 7.2334 11.4033 6.69629 11.1494 6.28613C10.9053 5.87598 10.5195 5.57813 9.99219 5.39258C9.47461 5.20703 8.80566 5.11426 7.98535 5.11426H4.93848V23H0.543945V1.67188H7.98535C9.22559 1.67188 10.334 1.78906 11.3105 2.02344C12.2969 2.25781 13.1318 2.61426 13.8154 3.09277C14.499 3.57129 15.0215 4.17676 15.3828 4.90918C15.7441 5.63184 15.9248 6.49121 15.9248 7.4873C15.9248 8.36621 15.7246 9.17676 15.3242 9.91895C14.9336 10.6611 14.3135 11.2666 13.4639 11.7354C12.624 12.2041 11.5254 12.4629 10.168 12.5117L8.89355 13.6396ZM8.70312 23H2.21387L3.92773 19.5723H8.70312C9.47461 19.5723 10.1045 19.4502 10.5928 19.2061C11.0811 18.9521 11.4424 18.6104 11.6768 18.1807C11.9111 17.751 12.0283 17.2578 12.0283 16.7012C12.0283 16.0762 11.9209 15.5342 11.7061 15.0752C11.501 14.6162 11.1689 14.2646 10.71 14.0205C10.251 13.7666 9.64551 13.6396 8.89355 13.6396H4.66016L4.68945 10.6221H9.96289L10.9736 11.8086C12.2725 11.7891 13.3174 12.0186 14.1084 12.4971C14.9092 12.9658 15.4902 13.5762 15.8516 14.3281C16.2227 15.0801 16.4082 15.8857 16.4082 16.7451C16.4082 18.1123 16.1104 19.2646 15.5146 20.2021C14.9189 21.1299 14.0449 21.8281 12.8926 22.2969C11.75 22.7656 10.3535 23 8.70312 23ZM23.8936 7.15039V23H19.6602V7.15039H23.8936ZM19.3965 3.01953C19.3965 2.4043 19.6113 1.89648 20.041 1.49609C20.4707 1.0957 21.0469 0.895508 21.7695 0.895508C22.4824 0.895508 23.0537 1.0957 23.4834 1.49609C23.9229 1.89648 24.1426 2.4043 24.1426 3.01953C24.1426 3.63477 23.9229 4.14258 23.4834 4.54297C23.0537 4.94336 22.4824 5.14355 21.7695 5.14355C21.0469 5.14355 20.4707 4.94336 20.041 4.54297C19.6113 4.14258 19.3965 3.63477 19.3965 3.01953ZM31.833 0.5V23H27.5996V0.5H31.833ZM39.7725 0.5V23H35.5391V0.5H39.7725ZM42.585 15.2363V14.9287C42.585 13.7666 42.751 12.6973 43.083 11.7207C43.415 10.7344 43.8984 9.87988 44.5332 9.15723C45.168 8.43457 45.9492 7.87305 46.877 7.47266C47.8047 7.0625 48.8691 6.85742 50.0703 6.85742C51.2715 6.85742 52.3408 7.0625 53.2783 7.47266C54.2158 7.87305 55.002 8.43457 55.6367 9.15723C56.2812 9.87988 56.7695 10.7344 57.1016 11.7207C57.4336 12.6973 57.5996 13.7666 57.5996 14.9287V15.2363C57.5996 16.3887 57.4336 17.458 57.1016 18.4443C56.7695 19.4209 56.2812 20.2754 55.6367 21.0078C55.002 21.7305 54.2207 22.292 53.293 22.6924C52.3652 23.0928 51.3008 23.293 50.0996 23.293C48.8984 23.293 47.8291 23.0928 46.8916 22.6924C45.9639 22.292 45.1777 21.7305 44.5332 21.0078C43.8984 20.2754 43.415 19.4209 43.083 18.4443C42.751 17.458 42.585 16.3887 42.585 15.2363ZM46.8037 14.9287V15.2363C46.8037 15.9004 46.8623 16.5205 46.9795 17.0967C47.0967 17.6729 47.2822 18.1807 47.5361 18.6201C47.7998 19.0498 48.1416 19.3867 48.5615 19.6309C48.9814 19.875 49.4941 19.9971 50.0996 19.9971C50.6855 19.9971 51.1885 19.875 51.6084 19.6309C52.0283 19.3867 52.3652 19.0498 52.6191 18.6201C52.873 18.1807 53.0586 17.6729 53.1758 17.0967C53.3027 16.5205 53.3662 15.9004 53.3662 15.2363V14.9287C53.3662 14.2842 53.3027 13.6787 53.1758 13.1123C53.0586 12.5361 52.8682 12.0283 52.6045 11.5889C52.3506 11.1396 52.0137 10.7881 51.5938 10.5342C51.1738 10.2803 50.666 10.1533 50.0703 10.1533C49.4746 10.1533 48.9668 10.2803 48.5469 10.5342C48.1367 10.7881 47.7998 11.1396 47.5361 11.5889C47.2822 12.0283 47.0967 12.5361 46.9795 13.1123C46.8623 13.6787 46.8037 14.2842 46.8037 14.9287ZM59.5186 15.2363V14.9287C59.5186 13.7666 59.6846 12.6973 60.0166 11.7207C60.3486 10.7344 60.832 9.87988 61.4668 9.15723C62.1016 8.43457 62.8828 7.87305 63.8105 7.47266C64.7383 7.0625 65.8027 6.85742 67.0039 6.85742C68.2051 6.85742 69.2744 7.0625 70.2119 7.47266C71.1494 7.87305 71.9355 8.43457 72.5703 9.15723C73.2148 9.87988 73.7031 10.7344 74.0352 11.7207C74.3672 12.6973 74.5332 13.7666 74.5332 14.9287V15.2363C74.5332 16.3887 74.3672 17.458 74.0352 18.4443C73.7031 19.4209 73.2148 20.2754 72.5703 21.0078C71.9355 21.7305 71.1543 22.292 70.2266 22.6924C69.2988 23.0928 68.2344 23.293 67.0332 23.293C65.832 23.293 64.7627 23.0928 63.8252 22.6924C62.8975 22.292 62.1113 21.7305 61.4668 21.0078C60.832 20.2754 60.3486 19.4209 60.0166 18.4443C59.6846 17.458 59.5186 16.3887 59.5186 15.2363ZM63.7373 14.9287V15.2363C63.7373 15.9004 63.7959 16.5205 63.9131 17.0967C64.0303 17.6729 64.2158 18.1807 64.4697 18.6201C64.7334 19.0498 65.0752 19.3867 65.4951 19.6309C65.915 19.875 66.4277 19.9971 67.0332 19.9971C67.6191 19.9971 68.1221 19.875 68.542 19.6309C68.9619 19.3867 69.2988 19.0498 69.5527 18.6201C69.8066 18.1807 69.9922 17.6729 70.1094 17.0967C70.2363 16.5205 70.2998 15.9004 70.2998 15.2363V14.9287C70.2998 14.2842 70.2363 13.6787 70.1094 13.1123C69.9922 12.5361 69.8018 12.0283 69.5381 11.5889C69.2842 11.1396 68.9473 10.7881 68.5273 10.5342C68.1074 10.2803 67.5996 10.1533 67.0039 10.1533C66.4082 10.1533 65.9004 10.2803 65.4805 10.5342C65.0703 10.7881 64.7334 11.1396 64.4697 11.5889C64.2158 12.0283 64.0303 12.5361 63.9131 13.1123C63.7959 13.6787 63.7373 14.2842 63.7373 14.9287ZM81.3447 10.1973V29.0938H77.126V7.15039H81.0371L81.3447 10.1973ZM91.3789 14.8994V15.207C91.3789 16.3594 91.2422 17.4287 90.9688 18.415C90.7051 19.4014 90.3145 20.2607 89.7969 20.9932C89.2793 21.7158 88.6348 22.2822 87.8633 22.6924C87.1016 23.0928 86.2227 23.293 85.2266 23.293C84.2598 23.293 83.4199 23.0977 82.707 22.707C81.9941 22.3164 81.3936 21.7695 80.9053 21.0664C80.4268 20.3535 80.041 19.5283 79.748 18.5908C79.4551 17.6533 79.2305 16.6475 79.0742 15.5732V14.7676C79.2305 13.6152 79.4551 12.5605 79.748 11.6035C80.041 10.6367 80.4268 9.80176 80.9053 9.09863C81.3936 8.38574 81.9893 7.83398 82.6924 7.44336C83.4053 7.05273 84.2402 6.85742 85.1973 6.85742C86.2031 6.85742 87.0869 7.04785 87.8486 7.42871C88.6201 7.80957 89.2646 8.35645 89.7822 9.06934C90.3096 9.78223 90.7051 10.6318 90.9688 11.6182C91.2422 12.6045 91.3789 13.6982 91.3789 14.8994ZM87.1455 15.207V14.8994C87.1455 14.2256 87.0869 13.6055 86.9697 13.0391C86.8623 12.4629 86.6865 11.96 86.4424 11.5303C86.208 11.1006 85.8955 10.7686 85.5049 10.5342C85.124 10.29 84.6602 10.168 84.1133 10.168C83.5371 10.168 83.0439 10.2607 82.6338 10.4463C82.2334 10.6318 81.9062 10.9004 81.6523 11.252C81.3984 11.6035 81.208 12.0234 81.0811 12.5117C80.9541 13 80.876 13.5518 80.8467 14.167V16.2031C80.8955 16.9258 81.0322 17.5752 81.2568 18.1514C81.4814 18.7178 81.8281 19.167 82.2969 19.499C82.7656 19.8311 83.3809 19.9971 84.1426 19.9971C84.6992 19.9971 85.168 19.875 85.5488 19.6309C85.9297 19.377 86.2373 19.0303 86.4717 18.5908C86.7158 18.1514 86.8867 17.6436 86.9844 17.0674C87.0918 16.4912 87.1455 15.8711 87.1455 15.207Z" fill="#434A54"/>
</svg>
